<?xml version="1.0" encoding="UTF-8" standalone="no"?>
<!DOCTYPE svg PUBLIC "-//W3C//DTD SVG 1.1//EN"
 "http://www.w3.org/Graphics/SVG/1.1/DTD/svg11.dtd">
<!-- Generated by graphviz version 2.38.0 (20140413.2041)
 -->
<!-- Title: G Pages: 1 -->
<svg width="468pt" height="302pt"
 viewBox="0.00 0.00 468.00 302.00" xmlns="http://www.w3.org/2000/svg" xmlns:xlink="http://www.w3.org/1999/xlink">
<g id="graph0" class="graph" transform="scale(1 1) rotate(0) translate(4 298)">
<title>G</title>
<polygon fill="white" stroke="none" points="-4,4 -4,-298 464,-298 464,4 -4,4"/>
<g id="clust1" class="cluster"><title>cluster_Global</title>
<path fill="none" stroke="gray" d="M20,-8C20,-8 440,-8 440,-8 446,-8 452,-14 452,-20 452,-20 452,-274 452,-274 452,-280 446,-286 440,-286 440,-286 20,-286 20,-286 14,-286 8,-280 8,-274 8,-274 8,-20 8,-20 8,-14 14,-8 20,-8"/>
<text text-anchor="middle" x="230" y="-273.2" font-family="Times,serif" font-size="11.00" fill="gray">Global</text>
</g>
<g id="clust2" class="cluster"><title>cluster_\ithoughts</title>
<path fill="none" stroke="gray" d="M28,-16C28,-16 432,-16 432,-16 438,-16 444,-22 444,-28 444,-28 444,-246 444,-246 444,-252 438,-258 432,-258 432,-258 28,-258 28,-258 22,-258 16,-252 16,-246 16,-246 16,-28 16,-28 16,-22 22,-16 28,-16"/>
<text text-anchor="middle" x="230" y="-245.2" font-family="Times,serif" font-size="11.00" fill="gray">ithoughts</text>
</g>
<g id="clust3" class="cluster"><title>cluster_\ithoughts\v1_0</title>
<path fill="none" stroke="gray" d="M36,-153C36,-153 268,-153 268,-153 274,-153 280,-159 280,-165 280,-165 280,-213 280,-213 280,-219 274,-225 268,-225 268,-225 36,-225 36,-225 30,-225 24,-219 24,-213 24,-213 24,-165 24,-165 24,-159 30,-153 36,-153"/>
<text text-anchor="middle" x="152" y="-212.2" font-family="Times,serif" font-size="11.00" fill="gray">v1_0</text>
</g>
<g id="clust4" class="cluster"><title>cluster_\ithoughts\v1_1</title>
<path fill="none" stroke="gray" d="M348,-158C348,-158 424,-158 424,-158 430,-158 436,-164 436,-170 436,-170 436,-218 436,-218 436,-224 430,-230 424,-230 424,-230 348,-230 348,-230 342,-230 336,-224 336,-218 336,-218 336,-170 336,-170 336,-164 342,-158 348,-158"/>
<text text-anchor="middle" x="386" y="-217.2" font-family="Times,serif" font-size="11.00" fill="gray">v1_1</text>
</g>
<g id="clust5" class="cluster"><title>cluster_\ithoughts\v1_1_1</title>
<path fill="none" stroke="gray" d="M192,-73C192,-73 268,-73 268,-73 274,-73 280,-79 280,-85 280,-85 280,-133 280,-133 280,-139 274,-145 268,-145 268,-145 192,-145 192,-145 186,-145 180,-139 180,-133 180,-133 180,-85 180,-85 180,-79 186,-73 192,-73"/>
<text text-anchor="middle" x="230" y="-132.2" font-family="Times,serif" font-size="11.00" fill="gray">v1_1_1</text>
</g>
<g id="clust6" class="cluster"><title>cluster_\ithoughts\html_snippets</title>
<path fill="none" stroke="gray" d="M354.5,-24C354.5,-24 417.5,-24 417.5,-24 423.5,-24 429.5,-30 429.5,-36 429.5,-36 429.5,-138 429.5,-138 429.5,-144 423.5,-150 417.5,-150 417.5,-150 354.5,-150 354.5,-150 348.5,-150 342.5,-144 342.5,-138 342.5,-138 342.5,-36 342.5,-36 342.5,-30 348.5,-24 354.5,-24"/>
<text text-anchor="middle" x="386" y="-137.2" font-family="Times,serif" font-size="11.00" fill="gray">html_snippets</text>
</g>
<!-- \\ithoughts\\v1_0\\Singleton -->
<g id="node1" class="node"><title>\\ithoughts\\v1_0\\Singleton</title>
<polygon fill="none" stroke="black" points="116,-197 32,-197 32,-161 116,-161 116,-197"/>
<text text-anchor="start" x="40" y="-182.2" font-family="Courier,monospace" font-size="11.00">«abstract»</text>
<text text-anchor="start" x="43.5" y="-170.2" font-family="Courier,monospace" font-size="11.00">Singleton</text>
</g>
<!-- \\ithoughts\\v1_0\\Module -->
<g id="node2" class="node"><title>\\ithoughts\\v1_0\\Module</title>
<polygon fill="none" stroke="black" points="272,-197 188,-197 188,-161 272,-161 272,-197"/>
<text text-anchor="start" x="196" y="-182.2" font-family="Courier,monospace" font-size="11.00">«abstract»</text>
<text text-anchor="start" x="209.5" y="-170.2" font-family="Courier,monospace" font-size="11.00">Module</text>
</g>
<!-- \\ithoughts\\v1_0\\Module&#45;&gt;\\ithoughts\\v1_0\\Singleton -->
<g id="edge1" class="edge"><title>\\ithoughts\\v1_0\\Module&#45;&gt;\\ithoughts\\v1_0\\Singleton</title>
<path fill="none" stroke="black" d="M187.731,-179C168.839,-179 146.261,-179 126.289,-179"/>
<polygon fill="none" stroke="black" points="126.116,-175.5 116.116,-179 126.116,-182.5 126.116,-175.5"/>
</g>
<!-- \\ithoughts\\v1_1\\Toolbox -->
<g id="node3" class="node"><title>\\ithoughts\\v1_1\\Toolbox</title>
<polygon fill="none" stroke="black" points="428,-202 344,-202 344,-166 428,-166 428,-202"/>
<text text-anchor="start" x="352" y="-187.2" font-family="Courier,monospace" font-size="11.00">«abstract»</text>
<text text-anchor="start" x="362" y="-175.2" font-family="Courier,monospace" font-size="11.00">Toolbox</text>
</g>
<!-- \\ithoughts\\v1_1_1\\Backbone -->
<g id="node4" class="node"><title>\\ithoughts\\v1_1_1\\Backbone</title>
<polygon fill="none" stroke="black" points="272,-117 188,-117 188,-81 272,-81 272,-117"/>
<text text-anchor="start" x="196" y="-102.2" font-family="Courier,monospace" font-size="11.00">«abstract»</text>
<text text-anchor="start" x="202.5" y="-90.2" font-family="Courier,monospace" font-size="11.00">Backbone</text>
</g>
<!-- \\ithoughts\\v1_1_1\\Backbone&#45;&gt;\\ithoughts\\v1_0\\Singleton -->
<g id="edge2" class="edge"><title>\\ithoughts\\v1_1_1\\Backbone&#45;&gt;\\ithoughts\\v1_0\\Singleton</title>
<path fill="none" stroke="black" d="M194.055,-117.153C171.805,-128.711 142.798,-143.78 118.987,-156.15"/>
<polygon fill="none" stroke="black" points="117.067,-153.203 109.807,-160.919 120.294,-159.415 117.067,-153.203"/>
</g>
<!-- \\ithoughts\\html_snippets\\Admin -->
<g id="node5" class="node"><title>\\ithoughts\\html_snippets\\Admin</title>
<polygon fill="none" stroke="black" points="413,-68 359,-68 359,-32 413,-32 413,-68"/>
<text text-anchor="middle" x="386" y="-47.2" font-family="Courier,monospace" font-size="11.00">Admin</text>
</g>
<!-- \\ithoughts\\html_snippets\\Admin&#45;&gt;\\ithoughts\\v1_0\\Singleton -->
<g id="edge3" class="edge"><title>\\ithoughts\\html_snippets\\Admin&#45;&gt;\\ithoughts\\v1_0\\Singleton</title>
<path fill="none" stroke="black" d="M358.863,-46.8058C318.337,-43.0472 238.882,-40.5177 180,-69 141.779,-87.4882 110.142,-126.158 91.9001,-152.357"/>
<polygon fill="none" stroke="black" points="88.948,-150.475 86.2372,-160.717 94.7434,-154.4 88.948,-150.475"/>
</g>
<!-- \\ithoughts\\html_snippets\\Backbone -->
<g id="node6" class="node"><title>\\ithoughts\\html_snippets\\Backbone</title>
<polygon fill="none" stroke="black" points="421.5,-122 350.5,-122 350.5,-86 421.5,-86 421.5,-122"/>
<text text-anchor="middle" x="386" y="-101.2" font-family="Courier,monospace" font-size="11.00">Backbone</text>
</g>
<!-- \\ithoughts\\html_snippets\\Backbone&#45;&gt;\\ithoughts\\v1_1_1\\Backbone -->
<g id="edge4" class="edge"><title>\\ithoughts\\html_snippets\\Backbone&#45;&gt;\\ithoughts\\v1_1_1\\Backbone</title>
<path fill="none" stroke="black" d="M350.439,-102.878C330.291,-102.224 304.505,-101.387 282.052,-100.658"/>
<polygon fill="none" stroke="black" points="282.11,-97.1577 272.002,-100.331 281.883,-104.154 282.11,-97.1577"/>
</g>
</g>
</svg>
